<?xml version="1.0" encoding="UTF-8"?>
<svg id="_レイヤー_2" data-name="レイヤー_2" xmlns="http://www.w3.org/2000/svg" viewBox="0 0 31.6 28.93">
  <defs>
    <style>
      .cls-1 {
        fill: #4d4d4d;
      }
    </style>
  </defs>
  <g id="_レイヤー_1-2" data-name="レイヤー_1">
    <path class="cls-1" d="M29.28,24V2.79c0-.68-.32-.95-1.12-.95H3.44c-.76,0-1.08.27-1.08.95v21.22c0,.68.32.95,1.12.95h24.68c.8,0,1.12-.27,1.12-.95ZM28.24,26.76H3.24c-.52,0-.8.17-.8.65v.24c0,.85-.04,1.22-1.2,1.22-.92,0-1.24-.2-1.24-.99,0-1.19.12-2.35.12-3.54V4.42C.12,3.5.04,2.55.04,1.63.04-.34,1.24.03,6,.03h19.6c1.28,0,2.56-.03,3.84-.03,1.44,0,2.12.27,2.12,1.56,0,.95-.04,1.9-.04,2.86v19.99c0,1.19.08,2.35.08,3.54,0,.78-.32.99-1.2.99-.96,0-1.24-.24-1.24-.99,0-.14.04-.27.04-.41-.04-.54-.32-.78-.96-.78Z"/>
    <path class="cls-1" d="M25.5,15.42c-1.19,5.51-6.01,8.52-11.48,7.34s-8.62-5.91-7.43-11.42,5.99-8.51,11.47-7.32,8.62,5.91,7.44,11.4ZM9.56,11.91c-.87,4.04.43,8.12,4.84,9.07s7.26-2.12,8.12-6.13-.44-8.1-4.85-9.05-7.26,2.12-8.12,6.11Z"/>
  </g>
</svg>