<?xml version="1.0" encoding="UTF-8"?>
<svg id="_レイヤー_2" data-name="レイヤー_2" xmlns="http://www.w3.org/2000/svg" viewBox="0 0 168.04 30.12">
  <defs>
    <style>
      .cls-1 {
        fill: #f4eee9;
      }
    </style>
  </defs>
  <g id="_レイヤー_1-2" data-name="レイヤー_1">
    <path class="cls-1" d="M165.72,24.96V3.74c0-.68-.32-.95-1.12-.95h-24.72c-.76,0-1.08.27-1.08.95v21.22c0,.68.32.95,1.12.95h24.68c.8,0,1.12-.27,1.12-.95ZM164.68,27.71h-25c-.52,0-.8.17-.8.65v.24c0,.85-.04,1.22-1.2,1.22-.92,0-1.24-.2-1.24-.99,0-1.19.12-2.35.12-3.54V5.37c0-.92-.08-1.87-.08-2.79,0-1.97,1.2-1.6,5.96-1.6h19.6c1.28,0,2.56-.03,3.84-.03,1.44,0,2.12.27,2.12,1.56,0,.95-.04,1.9-.04,2.86v19.99c0,1.19.08,2.35.08,3.54,0,.78-.32.99-1.2.99-.96,0-1.24-.24-1.24-.99,0-.14.04-.27.04-.41-.04-.54-.32-.78-.96-.78ZM151.24,8.5v-.48c0-.48-.24-.68-.84-.68h-2c-1.32,0-2.64.07-3.92.07-.72,0-.72-.41-.72-.88,0-.44,0-.85.72-.85,1.28,0,2.6.07,3.92.07h1.84c.64,0,.96-.2.96-.78-.04-.24-.16-.88-.16-1.02,0-.37.28-.41.6-.41s.72.03,1.04.07c.84.07,1.56.03,1.56.44,0,.2-.24.27-.52.44-.24.14-.36.27-.44.51v.17c0,.44.48.58.92.58h1.92c1.32,0,2.64-.07,3.92-.07.76,0,.72.41.72.92,0,.44-.04.82-.68.82-1.32,0-2.64-.07-3.96-.07h-2.08c-.6,0-.84.2-.84.68v.48c0,.48.24.68.84.68h3.16c1.56,0,3.12-.07,4.64-.07.72,0,.76.31.76.88,0,.48-.04.85-.72.85-1.56,0-3.12-.07-4.68-.07h-9.96c-1.56,0-3.12.07-4.64.07-.72,0-.72-.34-.72-.88,0-.51,0-.85.72-.85,1.52,0,3.08.07,4.64.07h3.16c.6,0,.84-.2.84-.68ZM146.4,14.45v.68c0,.41.36.71.84.71h9.88c.48,0,.8-.31.8-.71v-.68c0-.41-.32-.68-.8-.68h-9.88c-.48,0-.84.27-.84.68ZM148.96,17.41h-1.08c-.6,0-1.16.03-1.72.03-.96,0-1.76-.1-1.76-1.05,0-.2.04-.41.04-.58v-2.01c0-.2-.04-.37-.04-.58,0-.88.72-1.05,1.6-1.05.64,0,1.24.03,1.88.03h8.6c.6,0,1.16-.03,1.76-.03.92,0,1.68.1,1.68,1.05v3.13c0,.99-.76,1.09-1.68,1.09-.6,0-1.2-.03-1.76-.03h-1.96c-.28.03-.52.1-.52.34,0,.14.04.2.12.31.48.37,1,.78,1.48,1.12.2.14.44.27.72.27s.48-.1.72-.24c.8-.51,1.52-.99,2.2-1.5.12-.07.32-.31.48-.31.28,0,1.52,1.29,1.52,1.56,0,.14-.16.24-.28.24-.08,0-.2-.03-.28-.07s-.24-.03-.36-.03c-.16,0-.32.07-.44.14-.48.31-1,.58-1.48.88-.16.1-.32.24-.32.44,0,.17.12.31.28.41.96.54,1.44.78,2.44,1.22.48.2,1.04.44,1.04.85s-.52,1.02-1.04,1.02c-.44,0-1.36-.51-1.76-.75-2.04-1.19-3.56-2.41-5.28-3.91-.12-.07-.2-.14-.36-.14-.28,0-.36.2-.4.41v1.63c0,.88.08,1.73.08,2.62,0,.71-.08,1.09-1.04,1.09s-1.08-.41-1.08-1.12c0-.85.08-1.73.08-2.58v-1.97c-.04-.2-.12-.41-.4-.41-.16,0-.24.07-.36.14-1,.88-6.08,4.86-7.2,4.86-.56,0-1.04-.61-1.04-1.05,0-.41.6-.65.96-.82,2.2-1.09,4.4-2.58,6.32-4.01.08-.1.16-.17.16-.31,0-.31-.44-.34-.52-.34Z"/>
    <path class="cls-1" d="M111.12,2.72h-1.52c-.84,0-1.52.07-2.08.07-.92,0-1.2.03-1.2-.92,0-.82.24-.92.96-.92.76,0,1.52.1,2.32.1h1.48c.56,0,1.08-.07,1.6-.07,1.36,0,1.44.75,1.92,2.18,1.52,4.52,5,8.36,9.36,11.12.44.31.92.54.92.85,0,.44-.6,1.19-1.16,1.19-.52,0-2.4-1.43-2.84-1.77-3.72-2.89-6.6-6.56-7.96-10.71-.36-1.12-.72-1.12-1.8-1.12ZM101.76.92c.36,0,2.36.61,2.36,1.05,0,.2-.32.37-.52.44-.48.2-.52.2-.76.65-1.28,2.48-2.88,4.86-4.76,7.07-1.92,2.21-3.4,3.54-5.8,5.34-.32.24-.68.51-1.12.51-.6,0-1.24-.54-1.24-.95,0-.34.4-.61.72-.82,4.64-3.03,8.52-8.02,10.48-12.68.12-.27.24-.61.64-.61ZM94.2,28.49c-.28.03-.4.07-.48.31-.08.2-.24.41-.52.41-.48,0-1-1.67-1-2.18,0-.48.68-.41,2.12-.44,1.04-.03,2.04-.07,3.08-.17.84-.07,1.16-.24,1.52-.88,1.12-2.04,2.16-4.35,3.12-6.46,1.04-2.24,1.96-4.52,2.8-6.83.12-.27.12-.48.56-.48.28,0,.88.24,1.2.34.44.17,1.12.34,1.12.65,0,.24-.4.31-.64.34-.24.07-.36.2-.44.41-1.12,3.16-3.76,8.84-5.4,11.83-.04.1-.08.2-.08.31,0,.34.32.48.68.48,4.6-.37,9.2-.71,13.8-1.12.32-.07.64-.17.64-.51,0-.17-.04-.24-.12-.37-.84-1.09-1.68-2.18-2.6-3.23-.32-.34-1.48-1.6-1.48-1.97,0-.44.72-.85,1.16-.85.4,0,.64.24.84.48,1.48,1.6,2.84,3.26,4.12,4.96.56.75,3.4,4.62,3.4,5.27,0,.44-.68.82-1.16.82-.44,0-.68-.24-1.12-.88-.24-.37-.6-.95-1.04-1.6-.32-.44-.64-.65-1.24-.65-.08,0-.16,0-.28.03-7.52.75-15.04,1.39-22.56,2.01Z"/>
    <path class="cls-1" d="M61.16,8.33v.48c0,.41.32.71.8.71h10.72c.48,0,.84-.31.84-.71v-.48c0-.41-.36-.68-.84-.68h-10.72c-.48,0-.8.27-.8.68ZM75.48,7.68v1.8c0,.17.04.34.04.54,0,.82-.56,1.09-1.48,1.09-.6,0-1.24-.03-1.88-.03h-9.68c-.6,0-1.24.03-1.84.03-.92,0-1.48-.27-1.48-1.09v-2.89c0-.99.72-1.09,1.68-1.09h12.92c1,0,1.76.1,1.76,1.09,0,.17-.04.37-.04.54ZM53.4,17.37c0,.85-4.44,8.74-5.2,10.06-.12.2-.28.54-.28.75,0,.1.04.24.08.34.04.14.08.31.08.44,0,.2-.16.41-.4.41s-2.36-.82-2.36-1.29c0-.17.4-.71.52-.88,1.88-2.75,4.16-7.04,5.36-10.03.2-.48.24-.75.64-.75.48,0,1.56.48,1.56.95ZM51.88,11.8c0,.37-.56.99-1.16.99-.32,0-.56-.2-1-.51-1.28-.82-2.6-1.6-3.92-2.41-.24-.14-.68-.37-.68-.68,0-.41.6-1.02,1.12-1.02.44,0,3.4,1.9,4,2.28.4.24,1.64.88,1.64,1.36ZM47.64.75c.56,0,3.32,1.9,3.96,2.31.68.41,1.64.92,1.64,1.36,0,.41-.6.99-1.16.99-.36,0-.84-.41-1.28-.68-1.16-.78-2.36-1.53-3.6-2.28-.28-.17-.68-.37-.68-.68,0-.41.6-1.02,1.12-1.02ZM57.32,14.99v.61c0,.24.04.61.04.92,0,.61-.6.61-1.12.61-.8,0-1.08-.14-1.08-.68,0-.34.04-.68.04-1.02v-.34c0-.41-.04-.82-.04-1.19,0-1.26.68-1.43,2-1.43.96,0,1.92.03,2.84.03h14.72c.92,0,1.84-.03,2.76-.03,1.24,0,2.08.14,2.08,1.36,0,.41-.04.82-.04,1.26v.34c0,.31.08.68.08,1.02,0,.54-.32.68-1.12.68-.52,0-1.12-.03-1.12-.61,0-.31.04-.61.04-.92v-.61c0-.54-.28-.82-.96-.82h-18.16c-.68,0-.96.24-.96.82ZM68.36,2.01c0,.61.28.82.96.82h5.84c1.48,0,2.92-.07,4.36-.07.76,0,.8.37.8.92,0,.51-.04.92-.8.92-1.44,0-2.88-.1-4.36-.1h-15.32c-1.44,0-2.88.1-4.36.1-.72,0-.76-.37-.76-.95,0-.54.04-.88.76-.88,1.48,0,2.92.07,4.36.07h5.4c.68,0,.96-.2.96-.78,0-.44-.08-.85-.16-1.29,0-.1-.04-.2-.04-.31,0-.37.32-.44.64-.44.36,0,.76.03,1.12.07.88.1,1.64.07,1.64.48,0,.24-.24.31-.56.48-.44.27-.48.58-.48.99ZM64.84,20.4c.32-.17.52-.34.52-.65,0-.2-.16-.37-.32-.54-.08-.07-.12-.14-.2-.2-.16-.1-.32-.17-.48-.17s-.28.03-.44.1c-1.44.71-6.8,3.06-8.24,3.06-.72,0-1-.75-1-1.02,0-.37.44-.44.88-.58,2.28-.61,4.88-1.53,7-2.52.08-.07.16-.1.16-.24,0-.1-.12-.2-.28-.2-.68,0-1.76.03-2.32.03-.68,0-.68-.41-.68-.88,0-.44.04-.82.68-.82.84,0,2.08.07,3.2.07h8.04c1.12,0,2.36-.07,3.2-.07.68,0,.68.41.68.88,0,.44,0,.82-.68.82-.84,0-2.08-.03-3.2-.03h-.48c-.36,0-.72.1-.72.48,0,.1.04.2.12.31.52.85,1.2,1.73,1.88,2.52.2.2.44.41.8.41.28,0,.48-.1.68-.24,1.08-.68,1.96-1.39,2.92-2.14.12-.1.28-.24.44-.24.32,0,1.6,1.36,1.6,1.63,0,.17-.12.24-.32.24-.08,0-.16-.03-.24-.03-.08-.03-.28-.03-.36-.03-.16,0-.28.03-.44.14-.88.65-1.4,1.02-2.36,1.63-.2.17-.4.31-.4.58,0,.24.12.41.28.54,1.12.92,2.32,1.77,3.6,2.55.28.17.96.54.96.88,0,.37-.56,1.02-1.04,1.02-.72,0-3.36-2.01-3.96-2.48-2.76-2.18-4.4-4.32-6-7.17-.28-.51-.52-.58-1.12-.58h-.12c-.36,0-.92.03-.92.48,0,.14.12.27.24.37,2.44,2.01,3.36,4.39,3.36,7.24,0,3.23-1.4,4.52-5.24,4.52-1.4,0-2.4-.03-2.4-1.19,0-.34.16-.65.6-.65.04,0,1.28.1,2.4.1,2.4,0,2.68-1.16,2.68-2.92v-.24c-.04-.27-.16-.51-.56-.51-.16,0-.24.03-.4.1-2.72,1.6-6.36,3.16-9.48,4.11-.52.17-1.64.54-2.16.54-.76,0-.96-.92-.96-1.16,0-.37.44-.41,1.36-.65,3.8-.99,7.88-2.72,11.16-4.62.24-.17.44-.34.44-.65,0-.1-.04-.2-.08-.31-.2-.34-.44-.51-.72-.51-.24,0-.4.07-.6.17-2.32,1.26-4.8,2.35-7.4,3.16-.6.2-2.76.88-3.28.88-.72,0-.96-.78-.96-1.09,0-.37.48-.48.92-.58,3.32-.78,6.84-2.14,9.76-3.67Z"/>
    <path class="cls-1" d="M16.2,12.82v-.2c0-.51-.4-.68-.92-.68H5.64c-1.52,0-3.08.07-4.6.07-.72,0-.8-.37-.8-.92,0-.58.08-.92.8-.92,1.52,0,3.08.07,4.6.07h9.92c.76,0,1.16-.24,1.2-.88.2-2.01.08-4.62.08-6.66,0-.58-.04-1.26-.16-1.9,0-.1-.04-.2-.04-.31,0-.37.24-.44.6-.44s.8.03,1.12.07c1.36.1,1.64.17,1.64.48,0,.2-.16.27-.32.37-.6.31-.64.41-.72.95-.04,1.05,0,2.35,0,3.4,0,1.36,0,2.69-.08,4.05-.04.61.28.88,1,.88h10.04c1.52,0,3.04-.07,4.56-.07.8,0,.8.31.8.92,0,.54,0,.92-.76.92-1.52,0-3.08-.07-4.6-.07h-9.76c-.48,0-.88.14-.88.58,0,.1.04.17.08.27,1.08,2.92,3,5.95,5.2,8.4,2.72,3.06,6,5.37,9.92,7.24.28.14.64.31.64.58,0,.41-.56,1.12-1.08,1.12-1.08,0-5.64-3.03-6.64-3.74-4.04-3.03-7.2-6.9-9.04-11.22-.08-.1-.16-.2-.32-.2s-.28.14-.32.24c-1.08,2.86-2.4,5.1-4.68,7.38-2.68,2.72-6.92,5.3-10.52,7.07-.36.14-1.04.48-1.4.48-.56,0-1.12-.78-1.12-1.26,0-.34.32-.44.64-.58,1.4-.58,3.28-1.53,4.56-2.28,3.48-1.97,6.24-4.01,8.36-7.14,1.28-1.84,2.2-3.98,2.64-6.05Z"/>
  </g>
</svg>