<svg width="169" height="31" viewBox="0 0 169 31" fill="none" xmlns="http://www.w3.org/2000/svg">
<path d="M165.96 25.69V4.47401C165.96 3.79401 165.64 3.522 164.84 3.522H140.12C139.36 3.522 139.04 3.79401 139.04 4.47401V25.69C139.04 26.37 139.36 26.642 140.16 26.642H164.84C165.64 26.642 165.96 26.37 165.96 25.69ZM164.92 28.444H139.92C139.4 28.444 139.12 28.614 139.12 29.09V29.328C139.12 30.178 139.08 30.552 137.92 30.552C137 30.552 136.68 30.348 136.68 29.566C136.68 28.376 136.8 27.22 136.8 26.03V6.10601C136.8 5.18801 136.72 4.23601 136.72 3.318C136.72 1.346 137.92 1.72001 142.68 1.72001H162.28C163.56 1.72001 164.84 1.686 166.12 1.686C167.56 1.686 168.24 1.95801 168.24 3.25C168.24 4.202 168.2 5.15401 168.2 6.10601V26.098C168.2 27.288 168.28 28.444 168.28 29.634C168.28 30.416 167.96 30.62 167.08 30.62C166.12 30.62 165.84 30.382 165.84 29.634C165.84 29.498 165.88 29.362 165.88 29.226C165.84 28.682 165.56 28.444 164.92 28.444ZM151.48 9.23401V8.75801C151.48 8.282 151.24 8.07801 150.64 8.07801H148.64C147.32 8.07801 146 8.14601 144.72 8.14601C144 8.14601 144 7.73801 144 7.26201C144 6.82001 144 6.41201 144.72 6.41201C146 6.41201 147.32 6.48001 148.64 6.48001H150.48C151.12 6.48001 151.44 6.27601 151.44 5.69801C151.4 5.46 151.28 4.814 151.28 4.67801C151.28 4.30401 151.56 4.27001 151.88 4.27001C152.2 4.27001 152.6 4.30401 152.92 4.33801C153.76 4.40601 154.48 4.37201 154.48 4.78001C154.48 4.98401 154.24 5.05201 153.96 5.22201C153.72 5.35801 153.6 5.49401 153.52 5.732V5.90201C153.52 6.34401 154 6.48001 154.44 6.48001H156.36C157.68 6.48001 159 6.41201 160.28 6.41201C161.04 6.41201 161 6.82 161 7.33C161 7.772 160.96 8.14601 160.32 8.14601C159 8.14601 157.68 8.07801 156.36 8.07801H154.28C153.68 8.07801 153.44 8.282 153.44 8.75801V9.23401C153.44 9.71001 153.68 9.91401 154.28 9.91401H157.44C159 9.91401 160.56 9.84601 162.08 9.84601C162.8 9.84601 162.84 10.152 162.84 10.73C162.84 11.206 162.8 11.58 162.12 11.58C160.56 11.58 159 11.512 157.44 11.512H147.48C145.92 11.512 144.36 11.58 142.84 11.58C142.12 11.58 142.12 11.24 142.12 10.696C142.12 10.186 142.12 9.84601 142.84 9.84601C144.36 9.84601 145.92 9.91401 147.48 9.91401H150.64C151.24 9.91401 151.48 9.71001 151.48 9.23401ZM146.64 15.184V15.864C146.64 16.272 147 16.578 147.48 16.578H157.36C157.84 16.578 158.16 16.272 158.16 15.864V15.184C158.16 14.776 157.84 14.504 157.36 14.504H147.48C147 14.504 146.64 14.776 146.64 15.184ZM149.2 18.142H148.12C147.52 18.142 146.96 18.176 146.4 18.176C145.44 18.176 144.64 18.074 144.64 17.122C144.64 16.918 144.68 16.714 144.68 16.544V14.538C144.68 14.334 144.64 14.164 144.64 13.96C144.64 13.076 145.36 12.906 146.24 12.906C146.88 12.906 147.48 12.94 148.12 12.94H156.72C157.32 12.94 157.88 12.906 158.48 12.906C159.4 12.906 160.16 13.008 160.16 13.96V17.088C160.16 18.074 159.4 18.176 158.48 18.176C157.88 18.176 157.28 18.142 156.72 18.142H154.76C154.48 18.176 154.24 18.244 154.24 18.482C154.24 18.618 154.28 18.686 154.36 18.788C154.84 19.162 155.36 19.57 155.84 19.91C156.04 20.046 156.28 20.182 156.56 20.182C156.84 20.182 157.04 20.08 157.28 19.944C158.08 19.434 158.8 18.958 159.48 18.448C159.6 18.38 159.8 18.142 159.96 18.142C160.24 18.142 161.48 19.434 161.48 19.706C161.48 19.842 161.32 19.944 161.2 19.944C161.12 19.944 161 19.91 160.92 19.876C160.84 19.842 160.68 19.842 160.56 19.842C160.4 19.842 160.24 19.91 160.12 19.978C159.64 20.284 159.12 20.556 158.64 20.862C158.48 20.964 158.32 21.1 158.32 21.304C158.32 21.474 158.44 21.61 158.6 21.712C159.56 22.256 160.04 22.494 161.04 22.936C161.52 23.14 162.08 23.378 162.08 23.786C162.08 24.194 161.56 24.806 161.04 24.806C160.6 24.806 159.68 24.296 159.28 24.058C157.24 22.868 155.72 21.644 154 20.148C153.88 20.08 153.8 20.012 153.64 20.012C153.36 20.012 153.28 20.216 153.24 20.42V22.052C153.24 22.936 153.32 23.786 153.32 24.67C153.32 25.384 153.24 25.758 152.28 25.758C151.28 25.758 151.2 25.35 151.2 24.636C151.2 23.786 151.28 22.902 151.28 22.052V20.08C151.24 19.876 151.16 19.672 150.88 19.672C150.72 19.672 150.64 19.74 150.52 19.808C149.52 20.692 144.44 24.67 143.32 24.67C142.76 24.67 142.28 24.058 142.28 23.616C142.28 23.208 142.88 22.97 143.24 22.8C145.44 21.712 147.64 20.216 149.56 18.788C149.64 18.686 149.72 18.618 149.72 18.482C149.72 18.176 149.28 18.142 149.2 18.142Z" fill="#4D4D4D"/>
<path d="M111.36 3.45399H109.84C109 3.45399 108.32 3.52199 107.76 3.52199C106.84 3.52199 106.56 3.55599 106.56 2.60399C106.56 1.78799 106.8 1.68599 107.52 1.68599C108.28 1.68599 109.04 1.78799 109.84 1.78799H111.32C111.88 1.78799 112.4 1.71999 112.92 1.71999C114.28 1.71999 114.36 2.46799 114.84 3.89599C116.36 8.41799 119.84 12.26 124.2 15.014C124.64 15.32 125.12 15.558 125.12 15.864C125.12 16.306 124.52 17.054 123.96 17.054C123.44 17.054 121.56 15.626 121.12 15.286C117.4 12.396 114.52 8.72399 113.16 4.57599C112.8 3.45399 112.44 3.45399 111.36 3.45399ZM102 1.65199C102.36 1.65199 104.36 2.26399 104.36 2.70599C104.36 2.90999 104.04 3.07999 103.84 3.14799C103.36 3.35199 103.32 3.35199 103.08 3.79399C101.8 6.27599 100.2 8.65599 98.32 10.866C96.4 13.076 94.92 14.402 92.52 16.204C92.2 16.442 91.84 16.714 91.4 16.714C90.8 16.714 90.16 16.17 90.16 15.762C90.16 15.422 90.56 15.15 90.88 14.946C95.52 11.92 99.4 6.92199 101.36 2.26399C101.48 1.99199 101.6 1.65199 102 1.65199ZM94.44 29.226C94.16 29.26 94.04 29.294 93.96 29.532C93.88 29.736 93.72 29.94 93.44 29.94C92.96 29.94 92.44 28.274 92.44 27.764C92.44 27.288 93.12 27.356 94.56 27.322C95.6 27.288 96.6 27.254 97.64 27.152C98.48 27.084 98.8 26.914 99.16 26.268C100.28 24.228 101.32 21.916 102.28 19.808C103.32 17.564 104.24 15.286 105.08 12.974C105.2 12.702 105.2 12.498 105.64 12.498C105.92 12.498 106.52 12.736 106.84 12.838C107.28 13.008 107.96 13.178 107.96 13.484C107.96 13.722 107.56 13.79 107.32 13.824C107.08 13.892 106.96 14.028 106.88 14.232C105.76 17.394 103.12 23.072 101.48 26.064C101.44 26.166 101.4 26.268 101.4 26.37C101.4 26.71 101.72 26.846 102.08 26.846C106.68 26.472 111.28 26.132 115.88 25.724C116.2 25.656 116.52 25.554 116.52 25.214C116.52 25.044 116.48 24.976 116.4 24.84C115.56 23.752 114.72 22.664 113.8 21.61C113.48 21.27 112.32 20.012 112.32 19.638C112.32 19.196 113.04 18.788 113.48 18.788C113.88 18.788 114.12 19.026 114.32 19.264C115.8 20.862 117.16 22.528 118.44 24.228C119 24.976 121.84 28.852 121.84 29.498C121.84 29.94 121.16 30.314 120.68 30.314C120.24 30.314 120 30.076 119.56 29.43C119.32 29.056 118.96 28.478 118.52 27.832C118.2 27.39 117.88 27.186 117.28 27.186C117.2 27.186 117.12 27.186 117 27.22C109.48 27.968 101.96 28.614 94.44 29.226Z" fill="#4D4D4D"/>
<path d="M61.4 9.06399V9.54C61.4 9.948 61.72 10.254 62.2 10.254H72.92C73.4 10.254 73.76 9.948 73.76 9.54V9.06399C73.76 8.656 73.4 8.384 72.92 8.384H62.2C61.72 8.384 61.4 8.656 61.4 9.06399ZM75.72 8.41799V10.22C75.72 10.39 75.76 10.56 75.76 10.764C75.76 11.58 75.2 11.852 74.28 11.852C73.68 11.852 73.04 11.818 72.4 11.818H62.72C62.12 11.818 61.48 11.852 60.88 11.852C59.96 11.852 59.4 11.58 59.4 10.764V7.874C59.4 6.888 60.12 6.786 61.08 6.786H74C75 6.786 75.76 6.888 75.76 7.874C75.76 8.04399 75.72 8.24799 75.72 8.41799ZM53.64 18.108C53.64 18.958 49.2 26.846 48.44 28.172C48.32 28.376 48.16 28.716 48.16 28.92C48.16 29.022 48.2 29.158 48.24 29.26C48.28 29.396 48.32 29.566 48.32 29.702C48.32 29.906 48.16 30.11 47.92 30.11C47.68 30.11 45.56 29.294 45.56 28.818C45.56 28.648 45.96 28.104 46.08 27.934C47.96 25.18 50.24 20.896 51.44 17.904C51.64 17.428 51.68 17.156 52.08 17.156C52.56 17.156 53.64 17.632 53.64 18.108ZM52.12 12.532C52.12 12.906 51.56 13.518 50.96 13.518C50.64 13.518 50.4 13.314 49.96 13.008C48.68 12.192 47.36 11.41 46.04 10.594C45.8 10.458 45.36 10.22 45.36 9.914C45.36 9.506 45.96 8.89399 46.48 8.89399C46.92 8.89399 49.88 10.798 50.48 11.172C50.88 11.41 52.12 12.056 52.12 12.532ZM47.88 1.48199C48.44 1.48199 51.2 3.38599 51.84 3.794C52.52 4.20199 53.48 4.712 53.48 5.154C53.48 5.56199 52.88 6.14 52.32 6.14C51.96 6.14 51.48 5.732 51.04 5.45999C49.88 4.678 48.68 3.93 47.44 3.18199C47.16 3.01199 46.76 2.808 46.76 2.502C46.76 2.09399 47.36 1.48199 47.88 1.48199ZM57.56 15.728V16.34C57.56 16.578 57.6 16.952 57.6 17.258C57.6 17.87 57 17.87 56.48 17.87C55.68 17.87 55.4 17.734 55.4 17.19C55.4 16.85 55.44 16.51 55.44 16.17V15.83C55.44 15.422 55.4 15.014 55.4 14.64C55.4 13.382 56.08 13.212 57.4 13.212C58.36 13.212 59.32 13.246 60.24 13.246H74.96C75.88 13.246 76.8 13.212 77.72 13.212C78.96 13.212 79.8 13.348 79.8 14.572C79.8 14.98 79.76 15.388 79.76 15.83V16.17C79.76 16.476 79.84 16.85 79.84 17.19C79.84 17.734 79.52 17.87 78.72 17.87C78.2 17.87 77.6 17.836 77.6 17.258C77.6 16.952 77.64 16.646 77.64 16.34V15.728C77.64 15.184 77.36 14.912 76.68 14.912H58.52C57.84 14.912 57.56 15.15 57.56 15.728ZM68.6 2.73999C68.6 3.35199 68.88 3.55599 69.56 3.55599H75.4C76.88 3.55599 78.32 3.488 79.76 3.488C80.52 3.488 80.56 3.86199 80.56 4.40599C80.56 4.91599 80.52 5.32399 79.76 5.32399C78.32 5.32399 76.88 5.222 75.4 5.222H60.08C58.64 5.222 57.2 5.32399 55.72 5.32399C55 5.32399 54.96 4.94999 54.96 4.372C54.96 3.82799 55 3.488 55.72 3.488C57.2 3.488 58.64 3.55599 60.08 3.55599H65.48C66.16 3.55599 66.44 3.352 66.44 2.77399C66.44 2.332 66.36 1.92399 66.28 1.48199C66.28 1.37999 66.24 1.27799 66.24 1.17599C66.24 0.801995 66.56 0.733994 66.88 0.733994C67.24 0.733994 67.64 0.767996 68 0.801995C68.88 0.903994 69.64 0.869994 69.64 1.27799C69.64 1.51599 69.4 1.58399 69.08 1.75399C68.64 2.02599 68.6 2.332 68.6 2.73999ZM65.08 21.134C65.4 20.964 65.6 20.794 65.6 20.488C65.6 20.284 65.44 20.114 65.28 19.944C65.2 19.876 65.16 19.808 65.08 19.74C64.92 19.638 64.76 19.57 64.6 19.57C64.44 19.57 64.32 19.604 64.16 19.672C62.72 20.386 57.36 22.732 55.92 22.732C55.2 22.732 54.92 21.984 54.92 21.712C54.92 21.338 55.36 21.27 55.8 21.134C58.08 20.522 60.68 19.604 62.8 18.618C62.88 18.55 62.96 18.516 62.96 18.38C62.96 18.278 62.84 18.176 62.68 18.176C62 18.176 60.92 18.21 60.36 18.21C59.68 18.21 59.68 17.802 59.68 17.326C59.68 16.884 59.72 16.51 60.36 16.51C61.2 16.51 62.44 16.578 63.56 16.578H71.6C72.72 16.578 73.96 16.51 74.8 16.51C75.48 16.51 75.48 16.918 75.48 17.394C75.48 17.836 75.48 18.21 74.8 18.21C73.96 18.21 72.72 18.176 71.6 18.176H71.12C70.76 18.176 70.4 18.278 70.4 18.652C70.4 18.754 70.44 18.856 70.52 18.958C71.04 19.808 71.72 20.692 72.4 21.474C72.6 21.678 72.84 21.882 73.2 21.882C73.48 21.882 73.68 21.78 73.88 21.644C74.96 20.964 75.84 20.25 76.8 19.502C76.92 19.4 77.08 19.264 77.24 19.264C77.56 19.264 78.84 20.624 78.84 20.896C78.84 21.066 78.72 21.134 78.52 21.134C78.44 21.134 78.36 21.1 78.28 21.1C78.2 21.066 78 21.066 77.92 21.066C77.76 21.066 77.64 21.1 77.48 21.202C76.6 21.848 76.08 22.222 75.12 22.834C74.92 23.004 74.72 23.14 74.72 23.412C74.72 23.65 74.84 23.82 75 23.956C76.12 24.874 77.32 25.724 78.6 26.506C78.88 26.676 79.56 27.05 79.56 27.39C79.56 27.764 79 28.41 78.52 28.41C77.8 28.41 75.16 26.404 74.56 25.928C71.8 23.752 70.16 21.61 68.56 18.754C68.28 18.244 68.04 18.176 67.44 18.176H67.32C66.96 18.176 66.4 18.21 66.4 18.652C66.4 18.788 66.52 18.924 66.64 19.026C69.08 21.032 70 23.412 70 26.268C70 29.498 68.6 30.79 64.76 30.79C63.36 30.79 62.36 30.756 62.36 29.6C62.36 29.26 62.52 28.954 62.96 28.954C63 28.954 64.24 29.056 65.36 29.056C67.76 29.056 68.04 27.9 68.04 26.132V25.894C68 25.622 67.88 25.384 67.48 25.384C67.32 25.384 67.24 25.418 67.08 25.486C64.36 27.084 60.72 28.648 57.6 29.6C57.08 29.77 55.96 30.144 55.44 30.144C54.68 30.144 54.48 29.226 54.48 28.988C54.48 28.614 54.92 28.58 55.84 28.342C59.64 27.356 63.72 25.622 67 23.718C67.24 23.548 67.44 23.378 67.44 23.072C67.44 22.97 67.4 22.868 67.36 22.766C67.16 22.426 66.92 22.256 66.64 22.256C66.4 22.256 66.24 22.324 66.04 22.426C63.72 23.684 61.24 24.772 58.64 25.588C58.04 25.792 55.88 26.472 55.36 26.472C54.64 26.472 54.4 25.69 54.4 25.384C54.4 25.01 54.88 24.908 55.32 24.806C58.64 24.024 62.16 22.664 65.08 21.134Z" fill="#4D4D4D"/>
<path d="M16.44 13.552V13.348C16.44 12.838 16.04 12.668 15.52 12.668H5.87999C4.35999 12.668 2.79999 12.736 1.27999 12.736C0.55999 12.736 0.47999 12.362 0.47999 11.818C0.47999 11.24 0.55999 10.9 1.27999 10.9C2.79999 10.9 4.35999 10.968 5.87999 10.968H15.8C16.56 10.968 16.96 10.73 17 10.084C17.2 8.07801 17.08 5.46 17.08 3.42C17.08 2.842 17.04 2.162 16.92 1.516C16.92 1.414 16.88 1.312 16.88 1.21C16.88 0.836005 17.12 0.768005 17.48 0.768005C17.84 0.768005 18.28 0.802004 18.6 0.836004C19.96 0.938004 20.24 1.006 20.24 1.312C20.24 1.516 20.08 1.58401 19.92 1.686C19.32 1.992 19.28 2.094 19.2 2.638C19.16 3.692 19.2 4.984 19.2 6.038C19.2 7.39801 19.2 8.72401 19.12 10.084C19.08 10.696 19.4 10.968 20.12 10.968H30.16C31.68 10.968 33.2 10.9 34.72 10.9C35.52 10.9 35.52 11.206 35.52 11.818C35.52 12.362 35.52 12.736 34.76 12.736C33.24 12.736 31.68 12.668 30.16 12.668H20.4C19.92 12.668 19.52 12.804 19.52 13.246C19.52 13.348 19.56 13.416 19.6 13.518C20.68 16.442 22.6 19.468 24.8 21.916C27.52 24.976 30.8 27.288 34.72 29.158C35 29.294 35.36 29.464 35.36 29.736C35.36 30.144 34.8 30.858 34.28 30.858C33.2 30.858 28.64 27.832 27.64 27.118C23.6 24.092 20.44 20.216 18.6 15.898C18.52 15.796 18.44 15.694 18.28 15.694C18.12 15.694 18 15.83 17.96 15.932C16.88 18.788 15.56 21.032 13.28 23.31C10.6 26.03 6.35999 28.614 2.75999 30.382C2.39999 30.518 1.71999 30.858 1.35999 30.858C0.79999 30.858 0.23999 30.076 0.23999 29.6C0.23999 29.26 0.55999 29.158 0.87999 29.022C2.27999 28.444 4.15999 27.492 5.43999 26.744C8.91999 24.772 11.68 22.732 13.8 19.604C15.08 17.768 16 15.626 16.44 13.552Z" fill="#4D4D4D"/>
</svg>
