<svg width="266" height="265" viewBox="0 0 266 265" fill="none" xmlns="http://www.w3.org/2000/svg">
<path d="M210.423 7.0686C158.685 -15.5669 106.408 31.8598 98.8629 39.405C98.8629 49.1058 56.8256 125.635 23.9503 145.037C-8.92502 164.439 6.70422 187.074 23.9503 214.021C41.1964 240.968 146.829 248.513 167.847 225.878C188.866 203.243 210.423 114.318 233.059 106.772C255.694 99.2272 262.162 29.7041 210.423 7.0686Z" fill="#C2C2C2" stroke="#4D4D4D" stroke-width="0.5"/>
<path d="M222.81 12.9528C166.872 -11.5149 110.351 39.7507 102.194 47.9066C102.194 58.3927 56.744 141.117 21.2 162.089C-14.344 183.061 2.55394 207.529 21.2 236.657C39.846 265.785 154.053 273.941 176.778 249.474C199.503 225.006 222.81 128.883 247.283 120.727C271.756 112.571 278.748 37.4204 222.81 12.9528Z" stroke="#4D4D4D" stroke-width="0.5"/>
<path d="M198.736 18.2496C191.191 39.2683 183.646 100.168 162.627 119.57C141.609 138.972 109.272 184.782 83.9421 186.938C63.678 188.662 32.0242 187.656 18.7304 186.938" stroke="#4D4D4D" stroke-width="0.5"/>
<path d="M187.957 7.47083C180.412 28.4895 172.867 89.3896 151.848 108.791C130.83 128.193 98.4934 174.003 73.1633 176.159C52.8992 177.883 21.2454 176.877 7.9516 176.159" stroke="#4D4D4D" stroke-width="0.5"/>
</svg>
